<?xml version="1.0" encoding="UTF-8" standalone="no"?>
<!-- Created with Inkscape (http://www.inkscape.org/) -->

<svg
   xmlns:dc="http://purl.org/dc/elements/1.1/"
   xmlns:cc="http://creativecommons.org/ns#"
   xmlns:rdf="http://www.w3.org/1999/02/22-rdf-syntax-ns#"
   xmlns:svg="http://www.w3.org/2000/svg"
   xmlns="http://www.w3.org/2000/svg"
   xmlns:sodipodi="http://sodipodi.sourceforge.net/DTD/sodipodi-0.dtd"
   xmlns:inkscape="http://www.inkscape.org/namespaces/inkscape"
   width="210mm"
   height="297mm"
   viewBox="0 0 210 297"
   version="1.1"
   id="svg8"
   inkscape:version="0.92.3 (2405546, 2018-03-11)"
   sodipodi:docname="hueco.svg">
  <defs
     id="defs2" />
  <sodipodi:namedview
     id="base"
     pagecolor="#ffffff"
     bordercolor="#666666"
     borderopacity="1.0"
     inkscape:pageopacity="0.0"
     inkscape:pageshadow="2"
     inkscape:zoom="0.49497475"
     inkscape:cx="722.04443"
     inkscape:cy="565.08421"
     inkscape:document-units="mm"
     inkscape:current-layer="layer1"
     showgrid="false"
     inkscape:window-width="1920"
     inkscape:window-height="1017"
     inkscape:window-x="-8"
     inkscape:window-y="-8"
     inkscape:window-maximized="1" />
  <metadata
     id="metadata5">
    <rdf:RDF>
      <cc:Work
         rdf:about="">
        <dc:format>image/svg+xml</dc:format>
        <dc:type
           rdf:resource="http://purl.org/dc/dcmitype/StillImage" />
        <dc:title></dc:title>
      </cc:Work>
    </rdf:RDF>
  </metadata>
  <g
     inkscape:label="Capa 1"
     inkscape:groupmode="layer"
     id="layer1">
    <ellipse
       style="fill:#89a02c;stroke-width:0.26458332"
       id="path3713"
       cx="106.37327"
       cy="160.158"
       rx="77.508163"
       ry="76.439087" />
    <path
       style="fill:#000000;stroke-width:2.02030516"
       d="M 371.92555,891.95939 C 262.06956,879.72301 169.65692,809.80158 129.59237,708.60476 c -4.08026,-10.3061 -9.82615,-28.94342 -12.76863,-41.41625 -4.78124,-20.26708 -5.35783,-26.75856 -5.42379,-61.06369 -0.0579,-30.12327 0.73468,-42.08218 3.68224,-55.55838 16.70414,-76.37102 59.55164,-140.68114 121.37527,-182.17304 23.66364,-15.88146 45.27881,-26.61248 70.51263,-35.00654 37.07954,-12.33455 49.93415,-14.16353 98.2905,-13.98494 41.68871,0.15397 44.37236,0.40769 66.69292,6.30542 56.84825,15.02094 101.07582,40.17975 139.3782,79.28513 39.54214,40.37113 65.06817,88.08717 77.13177,144.18317 6.33701,29.46714 6.33701,82.41093 0,111.87807 -12.42332,57.76866 -37.98456,104.96695 -79.13058,146.11297 -43.44359,43.44359 -97.01735,71.30364 -157.12897,81.712 -22.79987,3.9478 -59.75993,5.36616 -80.27838,3.08071 z"
       id="path3717"
       inkscape:connector-curvature="0"
       transform="scale(0.26458333)" />
  </g>
</svg>
